<svg width="27" height="108" viewBox="0 0 27 108" xmlns="http://www.w3.org/2000/svg" xmlns:xlink="http://www.w3.org/1999/xlink"><title>Artboard 2</title><defs><path d="M0 2.006C0 .898.896 0 2 0H18.992C20.101 0 21 .897 21 2.006v9.988A2.006 2.006 0 0 1 19.005 14H1.995A2 2 0 0 1 0 11.994V2.006z" id="a"/><mask id="c" x="0" y="0" width="21" height="14" fill="#fff"><use xlink:href="#a"/></mask><rect id="b" width="21" height="14" rx="2"/><mask id="d" x="0" y="0" width="21" height="14" fill="#fff"><use xlink:href="#b"/></mask></defs><g fill="none" fill-rule="evenodd"><g transform="translate(3 36.5)"><use mask="url(#c)" xlink:href="#a" stroke="#C8D2D9" stroke-width="4"/><rect fill="#C8D2D9" x="5" y="15" width="11" height="2" rx="1"/></g><g transform="translate(3 19)" fill="#C8D2D9"><path d="M2 14.006C2 14.002 19.005 14 19.005 14 18.998 14 19 1.994 19 1.994 19 1.998 1.995 2 1.995 2 2.002 2 2 14.006 2 14.006zM1.995 0h17.01C20.107 0 21 .895 21 1.994v12.012A2 2 0 0 1 19.005 16H1.995A1.995 1.995 0 0 1 0 14.006V1.994A2 2 0 0 1 1.995 0z"/><rect x="9" y="9" width="3" height="3" rx="1.5"/></g><g transform="translate(7)" fill="#C8D2D9"><path d="M2 16.005C2 16 10.997 16 10.997 16 11.002 16 11 1.995 11 1.995 11 2 2.003 2 2.003 2 1.998 2 2 16.005 2 16.005zM2.003 0h8.994C12.103 0 13 .893 13 1.995v14.01A1.997 1.997 0 0 1 10.997 18H2.003A1.999 1.999 0 0 1 0 16.005V1.995C0 .893.894 0 2.003 0z"/><rect x="5" y="11" width="3" height="3" rx="1.5"/></g><g transform="translate(0 55.5)"><use mask="url(#d)" xlink:href="#b" transform="translate(3)" stroke="#C8D2D9" stroke-width="4"/><rect fill="#C8D2D9" y="13" width="27" height="2" rx="1"/></g><g fill="#C8D2D9"><path d="M12.998 74.5C7.476 74.5 3 78.976 3 84.498c0 5.523 19.997 5.523 19.997 0 0-5.522-4.476-9.998-9.999-9.998zm0 2A7.998 7.998 0 0 0 5 84.498c0 .882 3.422 2.142 7.998 2.142 4.577 0 7.999-1.26 7.999-2.142a7.998 7.998 0 0 0-7.999-7.998z"/><path d="M10.053 82.894a1 1 0 0 0 .894-1.788l-2-1a1 1 0 0 0-.894 1.788l2 1zM15.053 81.106a1 1 0 0 0 .894 1.788l2-1a1 1 0 0 0-.894-1.788l-2 1zM5.668 77.555a1 1 0 0 0 1.664-1.11l-2-3a1 1 0 1 0-1.664 1.11l2 3zM18.668 76.445a1 1 0 1 0 1.664 1.11l2-3a1 1 0 1 0-1.664-1.11l-2 3z"/></g><g fill="#C8D2D9"><path d="M17.546 106h3.55c1.054 0 1.904-.898 1.904-2.006v-9.988C23 92.897 22.147 92 21.095 92H5.902C4.85 92 4 92.898 4 94.006v9.988c0 1.109.847 2.006 1.892 2.006h4.014v-2H5.892c.086 0 .108.023.108-.006v-9.988c0-.028-.02-.006-.097-.006h15.192c-.076 0-.095-.02-.095.006v9.988c0 .027.02.006.096.006h-3.55v2z"/><path d="M12.414 104.825c0-.204.048-.382.146-.533a.977.977 0 0 1 .413-.352c.177-.085.386-.127.625-.127.142 0 .275.016.4.047.124.03.235.075.332.133a.88.88 0 0 1 .247.213.953.953 0 0 1 .206.619.898.898 0 0 1-.326.725c-.218.182-.504.273-.859.273s-.64-.09-.858-.273a.898.898 0 0 1-.326-.725zm-1.77-5.977c-.01-.496.073-.934.246-1.31a2.16 2.16 0 0 1 .725-.892c.31-.218.652-.38 1.025-.486.373-.107.772-.16 1.198-.16.887 0 1.628.22 2.223.659.594.44.892 1.071.892 1.897 0 .292-.038.554-.114.785a1.81 1.81 0 0 1-.346.619 4.093 4.093 0 0 1-.426.44c-.128.11-.3.24-.512.392-.249.177-.426.306-.533.386-.106.08-.215.184-.326.313-.11.128-.184.257-.22.386a1.801 1.801 0 0 0-.052.472v.36H12.68l-.013-.386c-.045-.506.04-.939.252-1.298.213-.36.537-.686.972-.979.266-.186.462-.33.586-.432.124-.102.235-.235.333-.4a1.06 1.06 0 0 0 .146-.552c0-.373-.118-.654-.353-.845-.235-.19-.526-.286-.872-.286-.275 0-.51.06-.705.18-.195.12-.34.277-.433.472-.093.195-.14.417-.14.665h-1.81z"/></g></g></svg>